<?xml version="1.0" encoding="UTF-8"?>
<svg xmlns="http://www.w3.org/2000/svg"
    xmlns:xlink="http://www.w3.org/1999/xlink" viewBox="0 0 512 512">
    <defs>
        <style>.e{fill:none;}.f{fill:#fe9ac3;}.g{clip-path:url(#d);}</style>
        <clipPath id="d">
            <rect class="e" width="512" height="512"/>
        </clipPath>
    </defs>
    <g id="a"/>
    <g id="b">
        <g id="c">
            <g class="g">
                <g>
                    <path class="f" d="M200.22,414.24c3.46,2.09,3.35,7.13-.18,9.11-17.55,9.85-66.62,13.67-75.27,6.22-12.04-10.38-19.27-61.48-10.41-108.76,.9-4.8,7.54-5.45,9.35-.92,10.2,25.49,31.24,66.98,76.5,94.35Z"/>
                    <path class="f" d="M126.79,269.71c-1.91-32.17,42.3-183.3,71.96-195.37,54.61-22.22,243.88,141.4,234.53,192.78-5.91,32.47-113.77,98.62-197.26,138.86-36.63,2.37-107.32-104.1-109.22-136.27Z"/>
                </g>
                <circle class="e" cx="454.9" cy="218.05" r="156.39"/>
                <circle class="e" cx="229.64" cy="190.8" r="156.39"/>
                <circle class="e" cx="223.05" cy="355.61" r="156.39"/>
            </g>
        </g>
    </g>
</svg>
